# xmcd
# 
# Track frame offsets:
#     150
#     38495
#     86407
#     132805
# 
# Disc length: 2428
# 
# Revision: 25
# Processed by: cddbd v1.5.2PL0 Copyright (c) Steve Scherf et al.
# Submitted via: fre:ac v1.0.31
# 
DISCID=23097a04
DTITLE=Miles Davis - Jazz At The Plaza vol. 1
DYEAR=1958
DGENRE=Jazz
TTITLE0=If I Were a Bell
TTITLE1=Oleo
TTITLE2=My Funny Valentine
TTITLE3=Straight, No Chaser - The Theme: Miles' Theme [closing theme]
EXTD=
EXTT0=
EXTT1=
EXTT2=
EXTT3=
PLAYORDER=
